  0
SECTION
  2
HEADER
  9
$ACADVER
  1
AC1006
  9
$EXTMIN
 10
0.000000
 20
0.000000
 30
0.000000
  9
$EXTMAX
 10
1696.000000
 20
602.000000
 30
0.000000
  0
ENDSEC
  0
SECTION
  2
ENTITIES
  0
POLYLINE
  8
0
 66
1
 70
1
  0
VERTEX
  8
0
 10
92.666667
 20
599.333333
 42
0.179603
  0
VERTEX
  8
0
 10
92.399513
 20
598.750789
 42
0.004165
  0
VERTEX
  8
0
 10
92.195833
 20
595.680208
 42
0.008732
  0
VERTEX
  8
0
 10
92.048261
 20
592.033313
 42
0.005745
  0
VERTEX
  8
0
 10
92.000000
 20
587.833333
 42
-0.005713
  0
VERTEX
  8
0
 10
91.940253
 20
582.604313
 42
-0.022958
  0
VERTEX
  8
0
 10
91.720694
 20
579.416200
 42
-0.033746
  0
VERTEX
  8
0
 10
91.360896
 20
577.462641
 42
-0.338413
  0
VERTEX
  8
0
 10
90.750000
 20
576.980082
 42
-0.002092
  0
VERTEX
  8
0
 10
89.775241
 20
576.968628
 42
-0.000012
  0
VERTEX
  8
0
 10
80.467187
 20
576.898428
 42
-0.000050
  0
VERTEX
  8
0
 10
69.856337
 20
576.819713
 42
-0.000032
  0
VERTEX
  8
0
 10
57.500000
 20
576.730082
 42
0.000000
  0
VERTEX
  8
0
 10
25.500000
 20
576.500000
 42
0.000000
  0
VERTEX
  8
0
 10
25.239402
 20
533.282652
 42
0.000000
  0
VERTEX
  8
0
 10
24.978804
 20
490.065304
 42
0.000000
  0
VERTEX
  8
0
 10
13.739402
 20
489.782652
 42
0.000000
  0
VERTEX
  8
0
 10
2.500000
 20
489.500000
 42
0.000000
  0
VERTEX
  8
0
 10
2.500000
 20
426.000000
 42
0.000000
  0
VERTEX
  8
0
 10
2.500000
 20
362.500000
 42
0.000000
  0
VERTEX
  8
0
 10
13.750000
 20
362.217249
 42
0.000000
  0
VERTEX
  8
0
 10
25.000000
 20
361.934498
 42
0.000000
  0
VERTEX
  8
0
 10
25.000000
 20
301.000000
 42
0.000000
  0
VERTEX
  8
0
 10
25.000000
 20
240.065502
 42
0.000000
  0
VERTEX
  8
0
 10
13.750000
 20
239.782751
 42
0.000000
  0
VERTEX
  8
0
 10
2.500000
 20
239.500000
 42
0.000000
  0
VERTEX
  8
0
 10
2.223856
 20
178.000000
 42
0.000844
  0
VERTEX
  8
0
 10
2.157353
 20
154.263224
 42
0.001333
  0
VERTEX
  8
0
 10
2.188981
 20
133.904687
 42
0.000297
  0
VERTEX
  8
0
 10
2.275025
 20
116.033441
 42
0.058145
  0
VERTEX
  8
0
 10
2.492908
 20
114.250000
 42
0.141078
  0
VERTEX
  8
0
 10
3.215225
 20
112.982673
 42
0.145906
  0
VERTEX
  8
0
 10
4.491829
 20
112.313687
 42
0.044830
  0
VERTEX
  8
0
 10
7.056881
 20
112.047711
 42
0.003431
  0
VERTEX
  8
0
 10
14.010513
 20
112.000000
 42
0.000000
  0
VERTEX
  8
0
 10
24.982922
 20
112.000000
 42
0.000000
  0
VERTEX
  8
0
 10
25.241461
 20
57.250000
 42
0.000000
  0
VERTEX
  8
0
 10
25.500000
 20
2.500000
 42
0.000000
  0
VERTEX
  8
0
 10
105.229447
 20
2.244019
 42
0.000000
  0
VERTEX
  8
0
 10
184.958894
 20
1.988039
 42
0.000000
  0
VERTEX
  8
0
 10
185.553898
 20
4.358725
 42
0.048527
  0
VERTEX
  8
0
 10
185.768217
 20
5.787157
 42
0.007111
  0
VERTEX
  8
0
 10
185.878813
 20
8.717189
 42
0.007978
  0
VERTEX
  8
0
 10
185.905067
 20
12.194725
 42
0.006772
  0
VERTEX
  8
0
 10
185.824451
 20
15.867002
 42
0.000000
  0
VERTEX
  8
0
 10
185.500000
 20
25.004592
 42
0.000000
  0
VERTEX
  8
0
 10
264.000000
 20
25.004592
 42
0.000000
  0
VERTEX
  8
0
 10
342.500000
 20
25.004592
 42
0.000000
  0
VERTEX
  8
0
 10
342.175549
 20
15.867002
 42
0.006770
  0
VERTEX
  8
0
 10
342.094919
 20
12.194777
 42
0.007976
  0
VERTEX
  8
0
 10
342.121134
 20
8.717402
 42
0.007109
  0
VERTEX
  8
0
 10
342.231668
 20
5.787544
 42
0.048532
  0
VERTEX
  8
0
 10
342.445920
 20
4.359448
 42
0.000000
  0
VERTEX
  8
0
 10
343.040743
 20
1.989484
 42
0.000000
  0
VERTEX
  8
0
 10
434.270372
 20
2.244742
 42
0.000000
  0
VERTEX
  8
0
 10
525.500000
 20
2.500000
 42
0.000000
  0
VERTEX
  8
0
 10
525.500000
 20
32.000000
 42
0.000000
  0
VERTEX
  8
0
 10
525.500000
 20
61.500000
 42
0.000000
  0
VERTEX
  8
0
 10
514.750000
 20
61.783832
 42
0.000000
  0
VERTEX
  8
0
 10
504.000000
 20
62.067663
 42
0.000000
  0
VERTEX
  8
0
 10
504.000000
 20
88.533832
 42
0.000000
  0
VERTEX
  8
0
 10
504.000000
 20
115.000000
 42
0.000000
  0
VERTEX
  8
0
 10
513.418213
 20
115.000000
 42
0.005951
  0
VERTEX
  8
0
 10
517.140776
 20
115.044305
 42
0.007831
  0
VERTEX
  8
0
 10
520.534475
 20
115.178303
 42
0.005915
  0
VERTEX
  8
0
 10
523.361889
 20
115.367894
 42
0.072030
  0
VERTEX
  8
0
 10
524.418213
 20
115.606989
 42
0.272988
  0
VERTEX
  8
0
 10
525.330914
 20
116.755714
 42
0.020741
  0
VERTEX
  8
0
 10
525.730377
 20
120.863783
 42
0.012383
  0
VERTEX
  8
0
 10
525.952557
 20
128.099964
 42
0.001483
  0
VERTEX
  8
0
 10
526.000000
 20
144.099851
 42
0.000000
  0
VERTEX
  8
0
 10
526.000000
 20
171.985724
 42
0.000000
  0
VERTEX
  8
0
 10
592.250000
 20
172.242862
 42
0.000000
  0
VERTEX
  8
0
 10
658.500000
 20
172.500000
 42
0.000000
  0
VERTEX
  8
0
 10
658.782751
 20
183.750000
 42
0.000000
  0
VERTEX
  8
0
 10
659.065502
 20
195.000000
 42
0.000000
  0
VERTEX
  8
0
 10
710.000000
 20
195.000000
 42
0.000000
  0
VERTEX
  8
0
 10
760.934498
 20
195.000000
 42
0.000000
  0
VERTEX
  8
0
 10
761.217249
 20
183.750000
 42
0.000000
  0
VERTEX
  8
0
 10
761.500000
 20
172.500000
 42
0.000000
  0
VERTEX
  8
0
 10
815.000000
 20
172.500000
 42
0.000000
  0
VERTEX
  8
0
 10
868.500000
 20
172.500000
 42
0.000000
  0
VERTEX
  8
0
 10
868.500000
 20
264.000000
 42
0.000000
  0
VERTEX
  8
0
 10
868.500000
 20
355.500000
 42
0.000000
  0
VERTEX
  8
0
 10
854.250000
 20
355.777457
 42
0.000000
  0
VERTEX
  8
0
 10
840.000000
 20
356.054913
 42
0.000000
  0
VERTEX
  8
0
 10
840.000000
 20
380.000000
 42
0.000000
  0
VERTEX
  8
0
 10
840.000000
 20
403.945087
 42
0.000000
  0
VERTEX
  8
0
 10
854.250000
 20
404.222543
 42
0.000000
  0
VERTEX
  8
0
 10
868.500000
 20
404.500000
 42
0.000000
  0
VERTEX
  8
0
 10
868.771140
 20
424.250000
 42
0.000000
  0
VERTEX
  8
0
 10
869.042280
 20
444.000000
 42
0.000000
  0
VERTEX
  8
0
 10
987.021140
 20
444.000000
 42
0.000000
  0
VERTEX
  8
0
 10
1105.000000
 20
444.000000
 42
0.000000
  0
VERTEX
  8
0
 10
1105.000000
 20
309.581787
 42
0.000423
  0
VERTEX
  8
0
 10
1105.043682
 20
257.930962
 42
0.000693
  0
VERTEX
  8
0
 10
1105.178303
 20
214.184275
 42
0.000054
  0
VERTEX
  8
0
 10
1105.357844
 20
174.909128
 42
0.090679
  0
VERTEX
  8
0
 10
1105.606989
 20
173.581787
 42
0.278928
  0
VERTEX
  8
0
 10
1106.799510
 20
172.655579
 42
0.016926
  0
VERTEX
  8
0
 10
1111.498054
 20
172.267157
 42
0.010892
  0
VERTEX
  8
0
 10
1119.712104
 20
172.046574
 42
0.001266
  0
VERTEX
  8
0
 10
1138.106989
 20
172.000000
 42
0.000000
  0
VERTEX
  8
0
 10
1170.000000
 20
172.000000
 42
0.000000
  0
VERTEX
  8
0
 10
1170.000000
 20
144.106989
 42
0.001482
  0
VERTEX
  8
0
 10
1170.047441
 20
128.102837
 42
0.012380
  0
VERTEX
  8
0
 10
1170.269618
 20
120.864913
 42
0.020733
  0
VERTEX
  8
0
 10
1170.669060
 20
116.755800
 42
0.273000
  0
VERTEX
  8
0
 10
1171.581787
 20
115.606989
 42
0.072030
  0
VERTEX
  8
0
 10
1172.638111
 20
115.367894
 42
0.005915
  0
VERTEX
  8
0
 10
1175.465525
 20
115.178303
 42
0.007831
  0
VERTEX
  8
0
 10
1178.859224
 20
115.044305
 42
0.005951
  0
VERTEX
  8
0
 10
1182.581787
 20
115.000000
 42
0.000000
  0
VERTEX
  8
0
 10
1192.000000
 20
115.000000
 42
0.000000
  0
VERTEX
  8
0
 10
1192.000000
 20
88.533832
 42
0.000000
  0
VERTEX
  8
0
 10
1192.000000
 20
62.067663
 42
0.000000
  0
VERTEX
  8
0
 10
1181.250000
 20
61.783832
 42
0.000000
  0
VERTEX
  8
0
 10
1170.500000
 20
61.500000
 42
0.000000
  0
VERTEX
  8
0
 10
1170.500000
 20
32.000000
 42
0.000000
  0
VERTEX
  8
0
 10
1170.500000
 20
2.500000
 42
0.000000
  0
VERTEX
  8
0
 10
1261.729628
 20
2.244742
 42
0.000000
  0
VERTEX
  8
0
 10
1352.959257
 20
1.989484
 42
0.000000
  0
VERTEX
  8
0
 10
1353.554080
 20
4.359448
 42
0.048532
  0
VERTEX
  8
0
 10
1353.768332
 20
5.787544
 42
0.007109
  0
VERTEX
  8
0
 10
1353.878866
 20
8.717402
 42
0.007976
  0
VERTEX
  8
0
 10
1353.905081
 20
12.194777
 42
0.006770
  0
VERTEX
  8
0
 10
1353.824451
 20
15.867002
 42
0.000000
  0
VERTEX
  8
0
 10
1353.500000
 20
25.004592
 42
0.000000
  0
VERTEX
  8
0
 10
1432.000000
 20
25.004592
 42
0.000000
  0
VERTEX
  8
0
 10
1510.500000
 20
25.004592
 42
0.000000
  0
VERTEX
  8
0
 10
1510.175549
 20
15.867002
 42
0.006772
  0
VERTEX
  8
0
 10
1510.094932
 20
12.194727
 42
0.007978
  0
VERTEX
  8
0
 10
1510.121185
 20
8.717200
 42
0.007111
  0
VERTEX
  8
0
 10
1510.231777
 20
5.787176
 42
0.048527
  0
VERTEX
  8
0
 10
1510.446093
 20
4.358761
 42
0.000000
  0
VERTEX
  8
0
 10
1511.041088
 20
1.988110
 42
0.000000
  0
VERTEX
  8
0
 10
1591.270544
 20
2.244055
 42
0.000000
  0
VERTEX
  8
0
 10
1671.500000
 20
2.500000
 42
0.000000
  0
VERTEX
  8
0
 10
1671.758539
 20
57.250000
 42
0.000000
  0
VERTEX
  8
0
 10
1672.017078
 20
112.000000
 42
0.000000
  0
VERTEX
  8
0
 10
1682.489487
 20
112.000000
 42
0.003688
  0
VERTEX
  8
0
 10
1689.094817
 20
112.048716
 42
0.046709
  0
VERTEX
  8
0
 10
1691.564464
 20
112.316728
 42
0.148255
  0
VERTEX
  8
0
 10
1692.801258
 20
112.985684
 42
0.136562
  0
VERTEX
  8
0
 10
1693.507092
 20
114.250000
 42
0.058145
  0
VERTEX
  8
0
 10
1693.724975
 20
116.033441
 42
0.000297
  0
VERTEX
  8
0
 10
1693.811019
 20
133.904688
 42
0.001333
  0
VERTEX
  8
0
 10
1693.842647
 20
154.263224
 42
0.000844
  0
VERTEX
  8
0
 10
1693.776144
 20
178.000000
 42
0.000000
  0
VERTEX
  8
0
 10
1693.500000
 20
239.500000
 42
0.000000
  0
VERTEX
  8
0
 10
1682.750000
 20
239.783832
 42
0.000000
  0
VERTEX
  8
0
 10
1672.000000
 20
240.067663
 42
0.000000
  0
VERTEX
  8
0
 10
1672.000000
 20
301.000000
 42
0.000000
  0
VERTEX
  8
0
 10
1672.000000
 20
361.932337
 42
0.000000
  0
VERTEX
  8
0
 10
1682.750000
 20
362.216168
 42
0.000000
  0
VERTEX
  8
0
 10
1693.500000
 20
362.500000
 42
0.000000
  0
VERTEX
  8
0
 10
1693.500000
 20
426.000000
 42
0.000000
  0
VERTEX
  8
0
 10
1693.500000
 20
489.500000
 42
0.000000
  0
VERTEX
  8
0
 10
1682.750000
 20
489.783832
 42
0.000000
  0
VERTEX
  8
0
 10
1672.000000
 20
490.067663
 42
0.000000
  0
VERTEX
  8
0
 10
1672.000000
 20
544.514780
 42
0.000000
  0
VERTEX
  8
0
 10
1672.000000
 20
598.961896
 42
0.000000
  0
VERTEX
  8
0
 10
1669.750000
 20
599.506052
 42
0.058446
  0
VERTEX
  8
0
 10
1667.940130
 20
599.725262
 42
0.000164
  0
VERTEX
  8
0
 10
1643.485938
 20
599.809550
 42
0.000984
  0
VERTEX
  8
0
 10
1615.864091
 20
599.841336
 42
0.000614
  0
VERTEX
  8
0
 10
1583.500000
 20
599.775104
 42
0.000000
  0
VERTEX
  8
0
 10
1499.500000
 20
599.500000
 42
0.000000
  0
VERTEX
  8
0
 10
1499.217249
 20
588.250000
 42
0.000000
  0
VERTEX
  8
0
 10
1498.934498
 20
577.000000
 42
0.000000
  0
VERTEX
  8
0
 10
1415.000000
 20
577.000000
 42
0.000000
  0
VERTEX
  8
0
 10
1331.065502
 20
577.000000
 42
0.000000
  0
VERTEX
  8
0
 10
1330.782751
 20
588.250000
 42
0.000000
  0
VERTEX
  8
0
 10
1330.500000
 20
599.500000
 42
0.000000
  0
VERTEX
  8
0
 10
1159.500000
 20
599.500000
 42
0.000000
  0
VERTEX
  8
0
 10
988.500000
 20
599.500000
 42
0.000000
  0
VERTEX
  8
0
 10
988.217249
 20
588.250000
 42
-0.007655
  0
VERTEX
  8
0
 10
988.038891
 20
583.841649
 42
-0.013720
  0
VERTEX
  8
0
 10
987.737847
 20
580.231009
 42
-0.007666
  0
VERTEX
  8
0
 10
987.373029
 20
577.349901
 42
-0.372364
  0
VERTEX
  8
0
 10
986.967249
 20
576.996441
 42
-0.000913
  0
VERTEX
  8
0
 10
986.177138
 20
576.994977
 42
-0.000000
  0
VERTEX
  8
0
 10
945.746629
 20
576.993928
 42
-0.000004
  0
VERTEX
  8
0
 10
900.982223
 20
576.993139
 42
-0.000002
  0
VERTEX
  8
0
 10
848.000000
 20
576.992883
 42
-0.000002
  0
VERTEX
  8
0
 10
795.017777
 20
576.993139
 42
-0.000004
  0
VERTEX
  8
0
 10
750.253371
 20
576.993928
 42
-0.000000
  0
VERTEX
  8
0
 10
709.822862
 20
576.994977
 42
-0.000913
  0
VERTEX
  8
0
 10
709.032751
 20
576.996441
 42
-0.372364
  0
VERTEX
  8
0
 10
708.626971
 20
577.349901
 42
-0.007666
  0
VERTEX
  8
0
 10
708.262153
 20
580.231009
 42
-0.013720
  0
VERTEX
  8
0
 10
707.961109
 20
583.841649
 42
-0.007655
  0
VERTEX
  8
0
 10
707.782751
 20
588.250000
 42
0.000000
  0
VERTEX
  8
0
 10
707.500000
 20
599.500000
 42
0.000000
  0
VERTEX
  8
0
 10
624.500000
 20
599.500000
 42
0.000000
  0
VERTEX
  8
0
 10
541.500000
 20
599.500000
 42
0.000000
  0
VERTEX
  8
0
 10
541.217249
 20
588.250000
 42
0.000000
  0
VERTEX
  8
0
 10
540.934498
 20
577.000000
 42
0.000000
  0
VERTEX
  8
0
 10
506.967249
 20
577.000000
 42
0.000000
  0
VERTEX
  8
0
 10
473.000000
 20
577.000000
 42
0.000000
  0
VERTEX
  8
0
 10
473.000000
 20
586.918213
 42
0.005656
  0
VERTEX
  8
0
 10
472.955718
 20
590.832367
 42
0.007527
  0
VERTEX
  8
0
 10
472.821697
 20
594.387600
 42
0.005529
  0
VERTEX
  8
0
 10
472.632420
 20
597.350751
 42
0.073019
  0
VERTEX
  8
0
 10
472.393011
 20
598.418213
 42
0.307525
  0
VERTEX
  8
0
 10
470.889040
 20
599.464218
 42
0.000668
  0
VERTEX
  8
0
 10
441.630089
 20
599.747108
 42
0.001898
  0
VERTEX
  8
0
 10
395.070590
 20
599.958328
 42
0.000185
  0
VERTEX
  8
0
 10
282.559678
 20
600.000000
 42
0.000330
  0
VERTEX
  8
0
 10
209.955222
 20
599.952073
 42
0.000548
  0
VERTEX
  8
0
 10
148.722739
 20
599.804167
 42
0.000017
  0
VERTEX
  8
0
 10
93.325913
 20
599.607785
 42
0.197982
  0
SEQEND
  0
POLYLINE
  8
0
 66
1
 70
1
  0
VERTEX
  8
0
 10
470.517128
 20
576.250000
 42
0.000000
  0
VERTEX
  8
0
 10
471.038104
 20
574.000000
 42
0.000000
  0
VERTEX
  8
0
 10
506.578069
 20
574.000000
 42
0.001880
  0
VERTEX
  8
0
 10
522.011231
 20
574.058033
 42
0.005193
  0
VERTEX
  8
0
 10
532.878450
 20
574.252656
 42
0.001747
  0
VERTEX
  8
0
 10
541.256070
 20
574.519050
 42
0.575583
  0
VERTEX
  8
0
 10
541.507079
 20
574.988546
 42
-0.114400
  0
VERTEX
  8
0
 10
541.393111
 20
575.325929
 42
-0.329480
  0
VERTEX
  8
0
 10
541.512472
 20
575.525685
 42
-0.155351
  0
VERTEX
  8
0
 10
541.868281
 20
575.556862
 42
-0.036408
  0
VERTEX
  8
0
 10
542.448062
 20
575.381557
 42
0.343820
  0
VERTEX
  8
0
 10
543.247619
 20
575.625309
 42
0.116952
  0
VERTEX
  8
0
 10
543.728431
 20
576.830072
 42
0.032978
  0
VERTEX
  8
0
 10
543.952900
 20
579.597108
 42
0.003753
  0
VERTEX
  8
0
 10
544.000000
 20
585.871655
 42
0.000000
  0
VERTEX
  8
0
 10
544.000000
 20
596.957288
 42
0.000000
  0
VERTEX
  8
0
 10
586.250000
 20
597.228644
 42
-0.000965
  0
VERTEX
  8
0
 10
605.203501
 20
597.313776
 42
-0.000610
  0
VERTEX
  8
0
 10
627.315412
 20
597.343411
 42
-0.000613
  0
VERTEX
  8
0
 10
649.044639
 20
597.319392
 42
-0.001129
  0
VERTEX
  8
0
 10
666.717358
 20
597.238287
 42
0.000000
  0
VERTEX
  8
0
 10
704.934717
 20
596.976574
 42
0.000000
  0
VERTEX
  8
0
 10
705.217358
 20
585.738287
 42
0.000000
  0
VERTEX
  8
0
 10
705.500000
 20
574.500000
 42
0.000000
  0
VERTEX
  8
0
 10
848.000000
 20
574.500000
 42
0.000000
  0
VERTEX
  8
0
 10
990.500000
 20
574.500000
 42
0.000000
  0
VERTEX
  8
0
 10
990.782751
 20
585.750000
 42
0.000000
  0
VERTEX
  8
0
 10
991.065502
 20
597.000000
 42
0.000000
  0
VERTEX
  8
0
 10
1159.532751
 20
597.000000
 42
0.000000
  0
VERTEX
  8
0
 10
1328.000000
 20
597.000000
 42
0.000000
  0
VERTEX
  8
0
 10
1328.000000
 20
585.893011
 42
0.003745
  0
VERTEX
  8
0
 10
1328.047088
 20
579.605809
 42
0.032913
  0
VERTEX
  8
0
 10
1328.271527
 20
576.833496
 42
0.116665
  0
VERTEX
  8
0
 10
1328.752237
 20
575.625976
 42
0.344218
  0
VERTEX
  8
0
 10
1329.551938
 20
575.381557
 42
-0.036168
  0
VERTEX
  8
0
 10
1330.134361
 20
575.557965
 42
-0.157230
  0
VERTEX
  8
0
 10
1330.489034
 20
575.525918
 42
-0.330796
  0
VERTEX
  8
0
 10
1330.606977
 20
575.324554
 42
-0.111583
  0
VERTEX
  8
0
 10
1330.489462
 20
574.982949
 42
0.584059
  0
VERTEX
  8
0
 10
1330.756435
 20
574.498477
 42
0.000310
  0
VERTEX
  8
0
 10
1351.680661
 20
574.304117
 42
0.002152
  0
VERTEX
  8
0
 10
1377.982334
 20
574.189352
 42
0.000759
  0
VERTEX
  8
0
 10
1415.687524
 20
574.244403
 42
0.000000
  0
VERTEX
  8
0
 10
1501.500000
 20
574.500000
 42
0.000000
  0
VERTEX
  8
0
 10
1501.782751
 20
585.750000
 42
0.000000
  0
VERTEX
  8
0
 10
1502.065502
 20
597.000000
 42
0.000000
  0
VERTEX
  8
0
 10
1585.532751
 20
597.000000
 42
0.000000
  0
VERTEX
  8
0
 10
1669.000000
 20
597.000000
 42
0.000000
  0
VERTEX
  8
0
 10
1669.000000
 20
542.606989
 42
0.000619
  0
VERTEX
  8
0
 10
1669.041187
 20
509.339395
 42
0.007215
  0
VERTEX
  8
0
 10
1669.260975
 20
496.339581
 42
0.010289
  0
VERTEX
  8
0
 10
1669.641690
 20
489.012461
 42
0.290777
  0
VERTEX
  8
0
 10
1670.725707
 20
487.551762
 42
0.073583
  0
VERTEX
  8
0
 10
1671.847304
 20
487.301532
 42
0.007371
  0
VERTEX
  8
0
 10
1674.595374
 20
487.142338
 42
0.009134
  0
VERTEX
  8
0
 10
1677.893690
 20
487.060340
 42
0.007141
  0
VERTEX
  8
0
 10
1681.475707
 20
487.087901
 42
0.000000
  0
VERTEX
  8
0
 10
1690.500000
 20
487.286256
 42
0.000000
  0
VERTEX
  8
0
 10
1690.500000
 20
426.005075
 42
0.000000
  0
VERTEX
  8
0
 10
1690.500000
 20
364.723893
 42
0.000000
  0
VERTEX
  8
0
 10
1681.000000
 20
364.877700
 42
0.008296
  0
VERTEX
  8
0
 10
1677.269384
 20
364.876199
 42
0.011433
  0
VERTEX
  8
0
 10
1673.921211
 20
364.742674
 42
0.008219
  0
VERTEX
  8
0
 10
1671.151558
 20
364.522966
 42
0.122475
  0
VERTEX
  8
0
 10
1670.242419
 20
364.202051
 42
0.245887
  0
VERTEX
  8
0
 10
1669.532184
 20
362.918858
 42
0.001907
  0
VERTEX
  8
0
 10
1669.293965
 20
350.701420
 42
0.004144
  0
VERTEX
  8
0
 10
1669.161695
 20
332.811834
 42
0.000800
  0
VERTEX
  8
0
 10
1669.242419
 20
300.436298
 42
0.000000
  0
VERTEX
  8
0
 10
1669.500000
 20
237.500000
 42
0.000000
  0
VERTEX
  8
0
 10
1680.250000
 20
237.216168
 42
0.000000
  0
VERTEX
  8
0
 10
1691.000000
 20
236.932337
 42
0.000000
  0
VERTEX
  8
0
 10
1691.000000
 20
176.000000
 42
0.000000
  0
VERTEX
  8
0
 10
1691.000000
 20
115.067663
 42
0.000000
  0
VERTEX
  8
0
 10
1680.250000
 20
114.783832
 42
0.000000
  0
VERTEX
  8
0
 10
1669.500000
 20
114.500000
 42
0.000000
  0
VERTEX
  8
0
 10
1669.241461
 20
59.750000
 42
0.000000
  0
VERTEX
  8
0
 10
1668.982922
 20
5.000000
 42
0.000000
  0
VERTEX
  8
0
 10
1590.741461
 20
4.998811
 42
0.000000
  0
VERTEX
  8
0
 10
1512.500000
 20
4.997622
 42
0.000000
  0
VERTEX
  8
0
 10
1512.500000
 20
16.248811
 42
0.000000
  0
VERTEX
  8
0
 10
1512.500000
 20
27.500000
 42
0.000000
  0
VERTEX
  8
0
 10
1432.000000
 20
27.500000
 42
0.000000
  0
VERTEX
  8
0
 10
1351.500000
 20
27.500000
 42
0.000000
  0
VERTEX
  8
0
 10
1351.500000
 20
16.248811
 42
0.000000
  0
VERTEX
  8
0
 10
1351.500000
 20
4.997622
 42
0.000000
  0
VERTEX
  8
0
 10
1263.250000
 20
4.998811
 42
0.000001
  0
VERTEX
  8
0
 10
1229.359265
 20
4.999206
 42
0.000002
  0
VERTEX
  8
0
 10
1200.703125
 20
4.999401
 42
0.000000
  0
VERTEX
  8
0
 10
1174.861347
 20
4.999496
 42
0.000284
  0
VERTEX
  8
0
 10
1174.250000
 20
4.999150
 42
-0.402688
  0
VERTEX
  8
0
 10
1173.941033
 20
5.295473
 42
-0.000757
  0
VERTEX
  8
0
 10
1173.642154
 20
12.930050
 42
-0.004338
  0
VERTEX
  8
0
 10
1173.389853
 20
21.645811
 42
-0.002603
  0
VERTEX
  8
0
 10
1173.233928
 20
31.999150
 42
0.000000
  0
VERTEX
  8
0
 10
1172.967856
 20
59.000000
 42
0.000000
  0
VERTEX
  8
0
 10
1182.733928
 20
59.015313
 42
0.007614
  0
VERTEX
  8
0
 10
1186.567104
 20
59.079696
 42
0.010517
  0
VERTEX
  8
0
 10
1190.003069
 20
59.262161
 42
0.007387
  0
VERTEX
  8
0
 10
1192.850396
 20
59.515847
 42
0.116002
  0
VERTEX
  8
0
 10
1193.765881
 20
59.834145
 42
0.239309
  0
VERTEX
  8
0
 10
1194.440435
 20
60.971215
 42
0.007865
  0
VERTEX
  8
0
 10
1194.711962
 20
66.405746
 42
0.008987
  0
VERTEX
  8
0
 10
1194.845881
 20
74.661832
 42
0.001899
  0
VERTEX
  8
0
 10
1194.765881
 20
89.068832
 42
0.000000
  0
VERTEX
  8
0
 10
1194.500000
 20
117.500000
 42
0.000000
  0
VERTEX
  8
0
 10
1183.765516
 20
117.783674
 42
0.000000
  0
VERTEX
  8
0
 10
1173.031032
 20
118.067349
 42
0.000000
  0
VERTEX
  8
0
 10
1172.765516
 20
146.283674
 42
0.000000
  0
VERTEX
  8
0
 10
1172.500000
 20
174.500000
 42
0.000000
  0
VERTEX
  8
0
 10
1140.253583
 20
174.763848
 42
0.000000
  0
VERTEX
  8
0
 10
1108.007165
 20
175.027697
 42
0.000000
  0
VERTEX
  8
0
 10
1107.753583
 20
310.763848
 42
0.000000
  0
VERTEX
  8
0
 10
1107.500000
 20
446.500000
 42
0.000000
  0
VERTEX
  8
0
 10
987.000000
 20
446.500000
 42
0.000000
  0
VERTEX
  8
0
 10
866.500000
 20
446.500000
 42
0.000000
  0
VERTEX
  8
0
 10
866.228951
 20
426.777328
 42
0.000000
  0
VERTEX
  8
0
 10
865.957903
 20
407.054656
 42
0.000000
  0
VERTEX
  8
0
 10
851.728951
 20
406.777328
 42
0.000000
  0
VERTEX
  8
0
 10
837.500000
 20
406.500000
 42
0.000000
  0
VERTEX
  8
0
 10
837.500000
 20
380.000000
 42
0.000000
  0
VERTEX
  8
0
 10
837.500000
 20
353.500000
 42
0.000000
  0
VERTEX
  8
0
 10
851.750000
 20
353.222543
 42
0.000000
  0
VERTEX
  8
0
 10
866.000000
 20
352.945087
 42
0.000000
  0
VERTEX
  8
0
 10
866.000000
 20
263.972543
 42
0.000000
  0
VERTEX
  8
0
 10
866.000000
 20
175.000000
 42
0.000000
  0
VERTEX
  8
0
 10
815.032751
 20
175.000000
 42
0.000000
  0
VERTEX
  8
0
 10
764.065502
 20
175.000000
 42
0.000000
  0
VERTEX
  8
0
 10
763.782751
 20
186.250000
 42
0.000000
  0
VERTEX
  8
0
 10
763.500000
 20
197.500000
 42
0.000000
  0
VERTEX
  8
0
 10
710.685499
 20
197.758874
 42
0.001232
  0
VERTEX
  8
0
 10
687.465849
 20
197.815488
 42
0.003531
  0
VERTEX
  8
0
 10
671.335046
 20
197.701174
 42
0.000838
  0
VERTEX
  8
0
 10
658.750502
 20
197.502024
 42
0.581517
  0
VERTEX
  8
0
 10
658.487437
 20
197.020328
 42
-0.109975
  0
VERTEX
  8
0
 10
658.607028
 20
196.676246
 42
-0.331522
  0
VERTEX
  8
0
 10
658.489907
 20
196.473948
 42
-0.158330
  0
VERTEX
  8
0
 10
658.135899
 20
196.441394
 42
-0.036030
  0
VERTEX
  8
0
 10
657.551938
 20
196.618443
 42
0.344085
  0
VERTEX
  8
0
 10
656.752285
 20
196.374246
 42
0.116761
  0
VERTEX
  8
0
 10
656.271541
 20
195.167649
 42
0.032935
  0
VERTEX
  8
0
 10
656.047092
 20
192.397099
 42
0.003748
  0
VERTEX
  8
0
 10
656.000000
 20
186.114127
 42
0.000000
  0
VERTEX
  8
0
 10
656.000000
 20
175.014276
 42
0.000000
  0
VERTEX
  8
0
 10
589.750000
 20
174.757138
 42
0.000000
  0
VERTEX
  8
0
 10
523.500000
 20
174.500000
 42
0.000000
  0
VERTEX
  8
0
 10
523.234484
 20
146.283674
 42
0.000000
  0
VERTEX
  8
0
 10
522.968968
 20
118.067349
 42
0.000000
  0
VERTEX
  8
0
 10
512.234484
 20
117.783674
 42
0.000000
  0
VERTEX
  8
0
 10
501.500000
 20
117.500000
 42
0.000000
  0
VERTEX
  8
0
 10
501.234119
 20
89.068832
 42
0.001899
  0
VERTEX
  8
0
 10
501.154119
 20
74.661832
 42
0.008987
  0
VERTEX
  8
0
 10
501.288038
 20
66.405746
 42
0.007865
  0
VERTEX
  8
0
 10
501.559565
 20
60.971215
 42
0.239309
  0
VERTEX
  8
0
 10
502.234119
 20
59.834145
 42
0.116002
  0
VERTEX
  8
0
 10
503.149604
 20
59.515847
 42
0.007387
  0
VERTEX
  8
0
 10
505.996931
 20
59.262161
 42
0.010517
  0
VERTEX
  8
0
 10
509.432896
 20
59.079696
 42
0.007614
  0
VERTEX
  8
0
 10
513.266072
 20
59.015313
 42
0.000000
  0
VERTEX
  8
0
 10
523.032144
 20
59.000000
 42
0.000000
  0
VERTEX
  8
0
 10
522.766072
 20
31.750000
 42
-0.002588
  0
VERTEX
  8
0
 10
522.610202
 20
21.318062
 42
-0.004374
  0
VERTEX
  8
0
 10
522.357846
 20
12.578125
 42
-0.000809
  0
VERTEX
  8
0
 10
522.058946
 20
4.963225
 42
-0.499096
  0
VERTEX
  8
0
 10
521.750000
 20
4.750000
 42
0.079884
  0
VERTEX
  8
0
 10
521.122536
 20
4.852755
 42
0.000024
  0
VERTEX
  8
0
 10
495.296875
 20
4.926213
 42
0.000437
  0
VERTEX
  8
0
 10
466.640732
 20
4.981283
 42
0.000265
  0
VERTEX
  8
0
 10
432.750000
 20
4.998811
 42
0.000000
  0
VERTEX
  8
0
 10
344.500000
 20
4.997622
 42
0.000000
  0
VERTEX
  8
0
 10
344.500000
 20
16.248811
 42
0.000000
  0
VERTEX
  8
0
 10
344.500000
 20
27.500000
 42
0.000000
  0
VERTEX
  8
0
 10
264.000000
 20
27.500000
 42
0.000000
  0
VERTEX
  8
0
 10
183.500000
 20
27.500000
 42
0.000000
  0
VERTEX
  8
0
 10
183.500000
 20
16.248811
 42
0.000000
  0
VERTEX
  8
0
 10
183.500000
 20
4.997622
 42
0.000000
  0
VERTEX
  8
0
 10
105.758539
 20
4.998811
 42
0.000000
  0
VERTEX
  8
0
 10
28.017078
 20
5.000000
 42
0.000000
  0
VERTEX
  8
0
 10
27.758539
 20
59.750000
 42
0.000000
  0
VERTEX
  8
0
 10
27.500000
 20
114.500000
 42
0.000000
  0
VERTEX
  8
0
 10
16.250000
 20
114.782751
 42
0.000000
  0
VERTEX
  8
0
 10
5.000000
 20
115.065502
 42
0.000000
  0
VERTEX
  8
0
 10
5.000000
 20
176.000000
 42
0.000000
  0
VERTEX
  8
0
 10
5.000000
 20
236.934498
 42
0.000000
  0
VERTEX
  8
0
 10
16.250000
 20
237.217249
 42
0.000000
  0
VERTEX
  8
0
 10
27.500000
 20
237.500000
 42
0.000000
  0
VERTEX
  8
0
 10
27.776144
 20
299.000000
 42
0.000866
  0
VERTEX
  8
0
 10
27.841645
 20
322.740588
 42
0.001365
  0
VERTEX
  8
0
 10
27.806959
 20
343.111486
 42
0.000311
  0
VERTEX
  8
0
 10
27.716622
 20
360.980403
 42
0.058127
  0
VERTEX
  8
0
 10
27.493272
 20
362.805060
 42
0.131065
  0
VERTEX
  8
0
 10
26.783196
 20
364.109284
 42
0.157702
  0
VERTEX
  8
0
 10
25.562738
 20
364.774054
 42
0.047457
  0
VERTEX
  8
0
 10
23.108508
 20
364.998220
 42
0.003353
  0
VERTEX
  8
0
 10
16.217129
 20
364.926118
 42
0.000000
  0
VERTEX
  8
0
 10
5.500000
 20
364.742115
 42
0.000000
  0
VERTEX
  8
0
 10
5.500000
 20
426.000000
 42
0.000000
  0
VERTEX
  8
0
 10
5.500000
 20
487.257885
 42
0.000000
  0
VERTEX
  8
0
 10
16.122506
 20
487.075507
 42
0.004819
  0
VERTEX
  8
0
 10
21.992851
 20
487.031304
 42
0.031591
  0
VERTEX
  8
0
 10
24.929628
 20
487.223258
 42
0.072046
  0
VERTEX
  8
0
 10
26.565252
 20
487.679938
 42
0.199659
  0
VERTEX
  8
0
 10
27.372506
 20
488.528352
 42
0.087681
  0
VERTEX
  8
0
 10
27.627409
 20
489.843179
 42
0.000542
  0
VERTEX
  8
0
 10
27.815674
 20
501.992743
 42
0.002203
  0
VERTEX
  8
0
 10
27.954698
 20
515.887544
 42
0.001400
  0
VERTEX
  8
0
 10
28.000000
 20
532.068307
 42
0.000000
  0
VERTEX
  8
0
 10
28.000000
 20
573.973039
 42
0.000000
  0
VERTEX
  8
0
 10
61.250000
 20
574.236519
 42
0.000000
  0
VERTEX
  8
0
 10
94.500000
 20
574.500000
 42
0.000000
  0
VERTEX
  8
0
 10
94.782727
 20
585.747384
 42
0.000000
  0
VERTEX
  8
0
 10
95.065453
 20
596.994768
 42
0.000000
  0
VERTEX
  8
0
 10
282.282727
 20
597.247384
 42
0.000000
  0
VERTEX
  8
0
 10
469.500000
 20
597.500000
 42
0.000000
  0
VERTEX
  8
0
 10
469.748076
 20
588.000000
 42
0.004447
  0
VERTEX
  8
0
 10
469.881214
 20
584.197715
 42
0.005366
  0
VERTEX
  8
0
 10
470.076316
 20
580.629687
 42
0.004603
  0
VERTEX
  8
0
 10
470.300245
 20
577.632101
 42
0.035957
  0
SEQEND
  0
POLYLINE
  8
0
 66
1
 70
1
  0
VERTEX
  8
0
 10
620.500000
 20
595.092487
 42
0.102047
  0
VERTEX
  8
0
 10
617.035600
 20
592.681551
 42
0.111241
  0
VERTEX
  8
0
 10
614.937008
 20
589.163463
 42
0.112588
  0
VERTEX
  8
0
 10
614.563777
 20
585.120207
 42
0.106589
  0
VERTEX
  8
0
 10
615.961650
 20
581.225074
 42
0.066949
  0
VERTEX
  8
0
 10
617.965769
 20
578.799972
 42
0.076866
  0
VERTEX
  8
0
 10
620.455150
 20
577.122240
 42
0.081628
  0
VERTEX
  8
0
 10
623.202549
 20
576.341999
 42
0.089809
  0
VERTEX
  8
0
 10
625.960967
 20
576.522452
 42
0.058344
  0
VERTEX
  8
0
 10
628.158731
 20
577.352258
 42
0.057085
  0
VERTEX
  8
0
 10
630.123049
 20
578.672099
 42
0.068600
  0
VERTEX
  8
0
 10
631.381896
 20
580.084028
 42
0.294261
  0
VERTEX
  8
0
 10
631.402089
 20
581.158423
 42
-0.121350
  0
VERTEX
  8
0
 10
631.300082
 20
581.474630
 42
-0.246990
  0
VERTEX
  8
0
 10
631.402145
 20
581.707068
 42
-0.163720
  0
VERTEX
  8
0
 10
631.706048
 20
581.817381
 42
-0.057116
  0
VERTEX
  8
0
 10
632.175670
 20
581.774777
 42
0.244312
  0
VERTEX
  8
0
 10
632.772126
 20
581.942843
 42
0.129001
  0
VERTEX
  8
0
 10
633.191691
 20
582.611584
 42
0.059921
  0
VERTEX
  8
0
 10
633.432611
 20
583.905856
 42
0.016086
  0
VERTEX
  8
0
 10
633.500000
 20
586.000000
 42
0.016086
  0
VERTEX
  8
0
 10
633.432611
 20
588.094144
 42
0.059921
  0
VERTEX
  8
0
 10
633.191691
 20
589.388416
 42
0.129001
  0
VERTEX
  8
0
 10
632.772126
 20
590.057157
 42
0.244312
  0
VERTEX
  8
0
 10
632.175670
 20
590.225223
 42
-0.057116
  0
VERTEX
  8
0
 10
631.706048
 20
590.182619
 42
-0.163720
  0
VERTEX
  8
0
 10
631.402145
 20
590.292932
 42
-0.246990
  0
VERTEX
  8
0
 10
631.300082
 20
590.525370
 42
-0.121350
  0
VERTEX
  8
0
 10
631.402089
 20
590.841577
 42
0.371476
  0
VERTEX
  8
0
 10
631.099097
 20
592.745954
 42
0.082657
  0
VERTEX
  8
0
 10
628.029020
 20
594.572598
 42
0.065925
  0
VERTEX
  8
0
 10
623.859307
 20
595.593544
 42
0.128971
  0
SEQEND
  0
POLYLINE
  8
0
 66
1
 70
1
  0
VERTEX
  8
0
 10
629.250000
 20
590.267101
 42
-0.149176
  0
VERTEX
  8
0
 10
630.841409
 20
587.619184
 42
-0.142200
  0
VERTEX
  8
0
 10
630.723530
 20
584.478560
 42
-0.125134
  0
VERTEX
  8
0
 10
628.874666
 20
581.587686
 42
-0.103340
  0
VERTEX
  8
0
 10
625.741316
 20
579.680052
 42
-0.115711
  0
VERTEX
  8
0
 10
623.669698
 20
579.450140
 42
-0.081582
  0
VERTEX
  8
0
 10
621.410959
 20
580.106187
 42
-0.081863
  0
VERTEX
  8
0
 10
619.487886
 20
581.446930
 42
-0.118071
  0
VERTEX
  8
0
 10
618.384726
 20
583.192716
 42
-0.043680
  0
VERTEX
  8
0
 10
617.876499
 20
585.258892
 42
-0.021166
  0
VERTEX
  8
0
 10
617.573321
 20
587.965322
 42
-0.019590
  0
VERTEX
  8
0
 10
617.503210
 20
590.297353
 42
-0.664886
  0
VERTEX
  8
0
 10
617.881361
 20
590.451972
 42
0.279014
  0
VERTEX
  8
0
 10
618.147721
 20
590.386448
 42
0.029395
  0
VERTEX
  8
0
 10
618.773048
 20
590.623074
 42
0.029613
  0
VERTEX
  8
0
 10
619.541861
 20
591.023065
 42
0.019236
  0
VERTEX
  8
0
 10
620.381361
 20
591.569976
 42
-0.106514
  0
VERTEX
  8
0
 10
622.363238
 20
592.416436
 42
-0.084522
  0
VERTEX
  8
0
 10
624.696338
 20
592.469587
 42
-0.077638
  0
VERTEX
  8
0
 10
627.092496
 20
591.726190
 42
-0.069531
  0
SEQEND
  0
POLYLINE
  8
0
 66
1
 70
1
  0
VERTEX
  8
0
 10
1156.500000
 20
595.076177
 42
0.115779
  0
VERTEX
  8
0
 10
1153.297473
 20
592.749942
 42
0.089143
  0
VERTEX
  8
0
 10
1151.091129
 20
589.020657
 42
0.089776
  0
VERTEX
  8
0
 10
1150.331424
 20
584.782031
 42
0.119976
  0
VERTEX
  8
0
 10
1151.259087
 20
581.000000
 42
0.138619
  0
VERTEX
  8
0
 10
1154.424020
 20
577.635385
 42
0.124751
  0
VERTEX
  8
0
 10
1159.015396
 20
576.253913
 42
0.125896
  0
VERTEX
  8
0
 10
1163.677895
 20
577.230286
 42
0.142540
  0
VERTEX
  8
0
 10
1167.043958
 20
580.304261
 42
0.058165
  0
VERTEX
  8
0
 10
1168.522742
 20
583.517210
 42
0.096102
  0
VERTEX
  8
0
 10
1168.889629
 20
586.471956
 42
0.100693
  0
VERTEX
  8
0
 10
1168.123643
 20
589.252759
 42
0.069051
  0
VERTEX
  8
0
 10
1166.250000
 20
591.948530
 42
0.054379
  0
VERTEX
  8
0
 10
1163.909077
 20
593.988788
 42
0.074591
  0
VERTEX
  8
0
 10
1161.408613
 20
595.225527
 42
0.083806
  0
VERTEX
  8
0
 10
1158.892633
 20
595.588282
 42
0.093685
  0
SEQEND
  0
POLYLINE
  8
0
 66
1
 70
1
  0
VERTEX
  8
0
 10
1164.250000
 20
590.226732
 42
-0.167945
  0
VERTEX
  8
0
 10
1165.987753
 20
587.173432
 42
-0.152539
  0
VERTEX
  8
0
 10
1165.559018
 20
583.560339
 42
-0.143456
  0
VERTEX
  8
0
 10
1163.101259
 20
580.676616
 42
-0.146027
  0
VERTEX
  8
0
 10
1159.493514
 20
579.600000
 42
-0.056350
  0
VERTEX
  8
0
 10
1156.598462
 20
579.927312
 42
-0.158432
  0
VERTEX
  8
0
 10
1154.870713
 20
580.961600
 42
-0.135039
  0
VERTEX
  8
0
 10
1153.919114
 20
582.938241
 42
-0.036633
  0
VERTEX
  8
0
 10
1153.545003
 20
586.421664
 42
-0.008736
  0
VERTEX
  8
0
 10
1153.517258
 20
588.125589
 42
-0.016973
  0
VERTEX
  8
0
 10
1153.565057
 20
589.485568
 42
-0.016770
  0
VERTEX
  8
0
 10
1153.664460
 20
590.450881
 42
-0.620022
  0
VERTEX
  8
0
 10
1153.827563
 20
590.505770
 42
0.262756
  0
VERTEX
  8
0
 10
1154.121168
 20
590.424038
 42
0.036083
  0
VERTEX
  8
0
 10
1154.748235
 20
590.628039
 42
0.033756
  0
VERTEX
  8
0
 10
1155.519106
 20
591.004364
 42
0.022348
  0
VERTEX
  8
0
 10
1156.350691
 20
591.533080
 42
-0.097593
  0
VERTEX
  8
0
 10
1158.147551
 20
592.327853
 42
-0.096741
  0
VERTEX
  8
0
 10
1160.117444
 20
592.384976
 42
-0.084263
  0
VERTEX
  8
0
 10
1162.182258
 20
591.673060
 42
-0.055167
  0
SEQEND
  0
POLYLINE
  8
0
 66
1
 70
1
  0
VERTEX
  8
0
 10
195.425691
 20
428.666949
 42
0.084077
  0
VERTEX
  8
0
 10
195.239141
 20
427.740243
 42
0.003594
  0
VERTEX
  8
0
 10
195.159868
 20
424.396263
 42
0.006069
  0
VERTEX
  8
0
 10
195.142447
 20
420.414932
 42
0.004276
  0
VERTEX
  8
0
 10
195.215483
 20
415.938857
 42
0.000000
  0
VERTEX
  8
0
 10
195.500000
 20
404.500000
 42
0.000000
  0
VERTEX
  8
0
 10
279.500000
 20
404.224896
 42
0.000614
  0
VERTEX
  8
0
 10
311.864091
 20
404.158664
 42
0.000984
  0
VERTEX
  8
0
 10
339.485937
 20
404.190450
 42
0.000164
  0
VERTEX
  8
0
 10
363.940130
 20
404.274738
 42
0.058446
  0
VERTEX
  8
0
 10
365.750000
 20
404.493948
 42
0.150878
  0
VERTEX
  8
0
 10
367.023523
 20
405.251785
 42
0.140474
  0
VERTEX
  8
0
 10
367.692212
 20
406.617232
 42
0.041129
  0
VERTEX
  8
0
 10
367.954209
 20
409.394519
 42
0.002961
  0
VERTEX
  8
0
 10
368.000000
 20
417.126041
 42
0.003392
  0
VERTEX
  8
0
 10
367.953404
 20
423.994492
 42
0.030174
  0
VERTEX
  8
0
 10
367.730220
 20
427.009154
 42
0.104367
  0
VERTEX
  8
0
 10
367.254406
 20
428.344862
 42
0.361353
  0
VERTEX
  8
0
 10
366.448062
 20
428.618443
 42
-0.035952
  0
VERTEX
  8
0
 10
365.863234
 20
428.441032
 42
-0.158952
  0
VERTEX
  8
0
 10
365.509603
 20
428.473874
 42
-0.331919
  0
VERTEX
  8
0
 10
365.392943
 20
428.676697
 42
-0.109077
  0
VERTEX
  8
0
 10
365.513709
 20
429.022182
 42
0.583110
  0
VERTEX
  8
0
 10
365.244429
 20
429.512481
 42
0.000324
  0
VERTEX
  8
0
 10
344.591890
 20
429.762170
 42
0.002193
  0
VERTEX
  8
0
 10
318.546432
 20
429.945929
 42
0.000763
  0
VERTEX
  8
0
 10
281.025855
 20
429.988819
 42
0.000562
  0
VERTEX
  8
0
 10
236.396756
 20
429.921573
 42
0.003203
  0
VERTEX
  8
0
 10
212.680260
 20
429.707274
 42
0.001113
  0
VERTEX
  8
0
 10
196.500199
 20
429.421373
 42
0.305094
  0
SEQEND
  0
POLYLINE
  8
0
 66
1
 70
1
  0
VERTEX
  8
0
 10
365.000000
 20
417.000000
 42
0.000000
  0
VERTEX
  8
0
 10
365.000000
 20
407.000000
 42
0.000000
  0
VERTEX
  8
0
 10
281.500000
 20
407.000000
 42
0.000000
  0
VERTEX
  8
0
 10
198.000000
 20
407.000000
 42
0.000000
  0
VERTEX
  8
0
 10
198.000000
 20
417.000000
 42
0.000000
  0
VERTEX
  8
0
 10
198.000000
 20
427.000000
 42
0.000000
  0
VERTEX
  8
0
 10
281.500000
 20
427.000000
 42
0.000000
  0
VERTEX
  8
0
 10
365.000000
 20
427.000000
 42
0.000000
  0
SEQEND
  0
POLYLINE
  8
0
 66
1
 70
1
  0
VERTEX
  8
0
 10
658.487437
 20
429.020328
 42
-0.109975
  0
VERTEX
  8
0
 10
658.607028
 20
428.676246
 42
-0.331522
  0
VERTEX
  8
0
 10
658.489907
 20
428.473948
 42
-0.158330
  0
VERTEX
  8
0
 10
658.135899
 20
428.441394
 42
-0.036030
  0
VERTEX
  8
0
 10
657.551938
 20
428.618443
 42
0.361353
  0
VERTEX
  8
0
 10
656.745594
 20
428.344862
 42
0.104367
  0
VERTEX
  8
0
 10
656.269780
 20
427.009154
 42
0.030174
  0
VERTEX
  8
0
 10
656.046596
 20
423.994492
 42
0.003392
  0
VERTEX
  8
0
 10
656.000000
 20
417.126041
 42
0.002962
  0
VERTEX
  8
0
 10
656.045806
 20
409.394995
 42
0.041122
  0
VERTEX
  8
0
 10
656.307825
 20
406.617178
 42
0.140371
  0
VERTEX
  8
0
 10
656.976480
 20
405.251017
 42
0.150796
  0
VERTEX
  8
0
 10
658.250000
 20
404.492169
 42
0.057908
  0
VERTEX
  8
0
 10
660.014490
 20
404.275197
 42
0.000415
  0
VERTEX
  8
0
 10
674.967187
 20
404.187937
 42
0.001583
  0
VERTEX
  8
0
 10
692.097500
 20
404.156421
 42
0.001013
  0
VERTEX
  8
0
 10
712.000000
 20
404.223117
 42
0.000000
  0
VERTEX
  8
0
 10
763.500000
 20
404.500000
 42
0.000000
  0
VERTEX
  8
0
 10
763.500000
 20
417.000000
 42
0.000000
  0
VERTEX
  8
0
 10
763.500000
 20
429.500000
 42
0.000000
  0
VERTEX
  8
0
 10
710.685499
 20
429.758874
 42
0.001232
  0
VERTEX
  8
0
 10
687.465849
 20
429.815488
 42
0.003531
  0
VERTEX
  8
0
 10
671.335046
 20
429.701174
 42
0.000838
  0
VERTEX
  8
0
 10
658.750502
 20
429.502024
 42
0.581517
  0
SEQEND
  0
POLYLINE
  8
0
 66
1
 70
1
  0
VERTEX
  8
0
 10
761.000000
 20
417.000000
 42
0.000000
  0
VERTEX
  8
0
 10
761.000000
 20
407.000000
 42
0.000000
  0
VERTEX
  8
0
 10
710.000000
 20
407.000000
 42
0.000000
  0
VERTEX
  8
0
 10
659.000000
 20
407.000000
 42
0.000000
  0
VERTEX
  8
0
 10
659.000000
 20
417.000000
 42
0.000000
  0
VERTEX
  8
0
 10
659.000000
 20
427.000000
 42
0.000000
  0
VERTEX
  8
0
 10
710.000000
 20
427.000000
 42
0.000000
  0
VERTEX
  8
0
 10
761.000000
 20
427.000000
 42
0.000000
  0
SEQEND
  0
POLYLINE
  8
0
 66
1
 70
1
  0
VERTEX
  8
0
 10
1330.489462
 20
429.017051
 42
-0.111583
  0
VERTEX
  8
0
 10
1330.606977
 20
428.675446
 42
-0.330796
  0
VERTEX
  8
0
 10
1330.489034
 20
428.474082
 42
-0.157230
  0
VERTEX
  8
0
 10
1330.134361
 20
428.442035
 42
-0.036168
  0
VERTEX
  8
0
 10
1329.551938
 20
428.618443
 42
0.361353
  0
VERTEX
  8
0
 10
1328.745594
 20
428.344862
 42
0.104367
  0
VERTEX
  8
0
 10
1328.269780
 20
427.009154
 42
0.030174
  0
VERTEX
  8
0
 10
1328.046596
 20
423.994492
 42
0.003392
  0
VERTEX
  8
0
 10
1328.000000
 20
417.126041
 42
0.002961
  0
VERTEX
  8
0
 10
1328.045791
 20
409.394514
 42
0.041129
  0
VERTEX
  8
0
 10
1328.307788
 20
406.617233
 42
0.140475
  0
VERTEX
  8
0
 10
1328.976476
 20
405.251792
 42
0.150879
  0
VERTEX
  8
0
 10
1330.250000
 20
404.493965
 42
0.058450
  0
VERTEX
  8
0
 10
1332.060300
 20
404.274733
 42
0.000162
  0
VERTEX
  8
0
 10
1356.660938
 20
404.190474
 42
0.000979
  0
VERTEX
  8
0
 10
1384.444188
 20
404.158685
 42
0.000611
  0
VERTEX
  8
0
 10
1417.000000
 20
404.224913
 42
0.000000
  0
VERTEX
  8
0
 10
1501.500000
 20
404.500000
 42
0.000000
  0
VERTEX
  8
0
 10
1501.500000
 20
417.000000
 42
0.000000
  0
VERTEX
  8
0
 10
1501.500000
 20
429.500000
 42
0.000000
  0
VERTEX
  8
0
 10
1415.687524
 20
429.755597
 42
0.000759
  0
VERTEX
  8
0
 10
1377.982334
 20
429.810648
 42
0.002152
  0
VERTEX
  8
0
 10
1351.680661
 20
429.695883
 42
0.000310
  0
VERTEX
  8
0
 10
1330.756435
 20
429.501523
 42
0.584059
  0
SEQEND
  0
POLYLINE
  8
0
 66
1
 70
1
  0
VERTEX
  8
0
 10
1499.000000
 20
417.000000
 42
0.000000
  0
VERTEX
  8
0
 10
1499.000000
 20
407.000000
 42
0.000000
  0
VERTEX
  8
0
 10
1415.000000
 20
407.000000
 42
0.000000
  0
VERTEX
  8
0
 10
1331.000000
 20
407.000000
 42
0.000000
  0
VERTEX
  8
0
 10
1331.000000
 20
417.000000
 42
0.000000
  0
VERTEX
  8
0
 10
1331.000000
 20
427.000000
 42
0.000000
  0
VERTEX
  8
0
 10
1415.000000
 20
427.000000
 42
0.000000
  0
VERTEX
  8
0
 10
1499.000000
 20
427.000000
 42
0.000000
  0
SEQEND
  0
POLYLINE
  8
0
 66
1
 70
1
  0
VERTEX
  8
0
 10
506.323594
 20
424.618833
 42
0.102480
  0
VERTEX
  8
0
 10
503.322274
 20
420.807406
 42
0.130832
  0
VERTEX
  8
0
 10
502.425977
 20
416.444369
 42
0.133160
  0
VERTEX
  8
0
 10
503.820153
 20
412.270010
 42
0.108043
  0
VERTEX
  8
0
 10
507.225074
 20
408.978620
 42
0.072744
  0
VERTEX
  8
0
 10
510.211888
 20
407.687682
 42
0.119336
  0
VERTEX
  8
0
 10
512.951959
 20
407.618665
 42
0.100590
  0
VERTEX
  8
0
 10
515.743552
 20
408.841517
 42
0.041468
  0
VERTEX
  8
0
 10
518.925588
 20
411.501450
 42
0.015661
  0
VERTEX
  8
0
 10
520.994605
 20
413.676912
 42
0.107434
  0
VERTEX
  8
0
 10
521.717913
 20
414.955093
 42
0.124647
  0
VERTEX
  8
0
 10
521.790888
 20
416.333340
 42
0.024000
  0
VERTEX
  8
0
 10
521.184224
 20
418.779453
 42
0.049294
  0
VERTEX
  8
0
 10
519.880008
 20
421.955868
 42
0.082252
  0
VERTEX
  8
0
 10
518.129897
 20
424.247315
 42
0.087049
  0
VERTEX
  8
0
 10
515.812260
 20
425.768256
 42
0.061632
  0
VERTEX
  8
0
 10
512.818706
 20
426.641994
 42
0.040228
  0
VERTEX
  8
0
 10
510.953573
 20
426.792391
 42
0.075647
  0
VERTEX
  8
0
 10
509.462729
 20
426.565611
 42
0.069739
  0
VERTEX
  8
0
 10
508.028830
 20
425.888425
 42
0.029768
  0
SEQEND
  0
POLYLINE
  8
0
 66
1
 70
1
  0
VERTEX
  8
0
 10
515.348871
 20
422.504691
 42
-0.035641
  0
VERTEX
  8
0
 10
516.905847
 20
421.624938
 42
-0.089717
  0
VERTEX
  8
0
 10
517.842560
 20
420.726537
 42
-0.101975
  0
VERTEX
  8
0
 10
518.336608
 20
419.632212
 42
-0.055262
  0
VERTEX
  8
0
 10
518.500000
 20
418.158386
 42
-0.114349
  0
VERTEX
  8
0
 10
517.676439
 20
414.604376
 42
-0.129659
  0
VERTEX
  8
0
 10
515.392245
 20
411.964529
 42
-0.136577
  0
VERTEX
  8
0
 10
512.203941
 20
410.879049
 42
-0.132991
  0
VERTEX
  8
0
 10
508.877104
 20
411.580340
 42
-0.141890
  0
VERTEX
  8
0
 10
506.461770
 20
413.848952
 42
-0.130400
  0
VERTEX
  8
0
 10
505.532991
 20
417.134747
 42
-0.129021
  0
VERTEX
  8
0
 10
506.352316
 20
420.475813
 42
-0.137558
  0
VERTEX
  8
0
 10
508.694561
 20
422.888876
 42
-0.037082
  0
VERTEX
  8
0
 10
510.320711
 20
423.679937
 42
-0.109509
  0
VERTEX
  8
0
 10
511.540166
 20
423.877331
 42
-0.081628
  0
VERTEX
  8
0
 10
512.928579
 20
423.566030
 42
-0.014902
  0
SEQEND
  0
POLYLINE
  8
0
 66
1
 70
1
  0
VERTEX
  8
0
 10
1178.323594
 20
424.618833
 42
0.102480
  0
VERTEX
  8
0
 10
1175.322274
 20
420.807406
 42
0.130832
  0
VERTEX
  8
0
 10
1174.425977
 20
416.444369
 42
0.133160
  0
VERTEX
  8
0
 10
1175.820153
 20
412.270010
 42
0.108043
  0
VERTEX
  8
0
 10
1179.225074
 20
408.978620
 42
0.072744
  0
VERTEX
  8
0
 10
1182.211888
 20
407.687682
 42
0.119336
  0
VERTEX
  8
0
 10
1184.951959
 20
407.618665
 42
0.100590
  0
VERTEX
  8
0
 10
1187.743552
 20
408.841517
 42
0.041468
  0
VERTEX
  8
0
 10
1190.925588
 20
411.501450
 42
0.015661
  0
VERTEX
  8
0
 10
1192.994605
 20
413.676912
 42
0.107434
  0
VERTEX
  8
0
 10
1193.717913
 20
414.955093
 42
0.124647
  0
VERTEX
  8
0
 10
1193.790888
 20
416.333340
 42
0.024000
  0
VERTEX
  8
0
 10
1193.184224
 20
418.779453
 42
0.049294
  0
VERTEX
  8
0
 10
1191.880008
 20
421.955868
 42
0.082252
  0
VERTEX
  8
0
 10
1190.129897
 20
424.247315
 42
0.087049
  0
VERTEX
  8
0
 10
1187.812260
 20
425.768256
 42
0.061632
  0
VERTEX
  8
0
 10
1184.818706
 20
426.641994
 42
0.040228
  0
VERTEX
  8
0
 10
1182.953573
 20
426.792391
 42
0.075647
  0
VERTEX
  8
0
 10
1181.462729
 20
426.565611
 42
0.069739
  0
VERTEX
  8
0
 10
1180.028830
 20
425.888425
 42
0.029768
  0
SEQEND
  0
POLYLINE
  8
0
 66
1
 70
1
  0
VERTEX
  8
0
 10
1187.348871
 20
422.504691
 42
-0.035641
  0
VERTEX
  8
0
 10
1188.905847
 20
421.624938
 42
-0.089717
  0
VERTEX
  8
0
 10
1189.842560
 20
420.726537
 42
-0.101975
  0
VERTEX
  8
0
 10
1190.336608
 20
419.632212
 42
-0.055262
  0
VERTEX
  8
0
 10
1190.500000
 20
418.158386
 42
-0.114349
  0
VERTEX
  8
0
 10
1189.676439
 20
414.604376
 42
-0.129659
  0
VERTEX
  8
0
 10
1187.392245
 20
411.964529
 42
-0.136577
  0
VERTEX
  8
0
 10
1184.203941
 20
410.879049
 42
-0.132991
  0
VERTEX
  8
0
 10
1180.877104
 20
411.580340
 42
-0.141890
  0
VERTEX
  8
0
 10
1178.461770
 20
413.848952
 42
-0.130400
  0
VERTEX
  8
0
 10
1177.532991
 20
417.134747
 42
-0.129021
  0
VERTEX
  8
0
 10
1178.352316
 20
420.475813
 42
-0.137558
  0
VERTEX
  8
0
 10
1180.694561
 20
422.888876
 42
-0.037082
  0
VERTEX
  8
0
 10
1182.320711
 20
423.679937
 42
-0.109509
  0
VERTEX
  8
0
 10
1183.540166
 20
423.877331
 42
-0.081628
  0
VERTEX
  8
0
 10
1184.928579
 20
423.566030
 42
-0.014902
  0
SEQEND
  0
POLYLINE
  8
0
 66
1
 70
1
  0
VERTEX
  8
0
 10
1343.606989
 20
396.418213
 42
0.091777
  0
VERTEX
  8
0
 10
1343.024496
 20
393.277232
 42
0.000081
  0
VERTEX
  8
0
 10
1343.012096
 20
317.000000
 42
0.000081
  0
VERTEX
  8
0
 10
1343.024496
 20
240.722768
 42
0.091777
  0
VERTEX
  8
0
 10
1343.606989
 20
237.581787
 42
0.302465
  0
VERTEX
  8
0
 10
1345.030971
 20
236.571724
 42
0.002907
  0
VERTEX
  8
0
 10
1358.336083
 20
236.256233
 42
0.004060
  0
VERTEX
  8
0
 10
1380.175839
 20
236.042800
 42
0.000413
  0
VERTEX
  8
0
 10
1432.000000
 20
236.000000
 42
0.000413
  0
VERTEX
  8
0
 10
1483.824161
 20
236.042800
 42
0.004060
  0
VERTEX
  8
0
 10
1505.663917
 20
236.256233
 42
0.002907
  0
VERTEX
  8
0
 10
1518.969029
 20
236.571724
 42
0.302465
  0
VERTEX
  8
0
 10
1520.393011
 20
237.581787
 42
0.091777
  0
VERTEX
  8
0
 10
1520.975504
 20
240.722768
 42
0.000081
  0
VERTEX
  8
0
 10
1520.987904
 20
317.000000
 42
0.000081
  0
VERTEX
  8
0
 10
1520.975504
 20
393.277232
 42
0.091777
  0
VERTEX
  8
0
 10
1520.393011
 20
396.418213
 42
0.302465
  0
VERTEX
  8
0
 10
1518.969029
 20
397.428276
 42
0.002907
  0
VERTEX
  8
0
 10
1505.663917
 20
397.743767
 42
0.004060
  0
VERTEX
  8
0
 10
1483.824161
 20
397.957200
 42
0.000413
  0
VERTEX
  8
0
 10
1432.000000
 20
398.000000
 42
0.000413
  0
VERTEX
  8
0
 10
1380.175839
 20
397.957200
 42
0.004060
  0
VERTEX
  8
0
 10
1358.336083
 20
397.743767
 42
0.002907
  0
VERTEX
  8
0
 10
1345.030971
 20
397.428276
 42
0.302465
  0
SEQEND
  0
POLYLINE
  8
0
 66
1
 70
1
  0
VERTEX
  8
0
 10
1518.000000
 20
317.250000
 42
0.000000
  0
VERTEX
  8
0
 10
1518.000000
 20
239.000000
 42
0.000000
  0
VERTEX
  8
0
 10
1432.000000
 20
239.000000
 42
0.000000
  0
VERTEX
  8
0
 10
1346.000000
 20
239.000000
 42
0.000000
  0
VERTEX
  8
0
 10
1346.000000
 20
317.250000
 42
0.000000
  0
VERTEX
  8
0
 10
1346.000000
 20
395.500000
 42
0.000000
  0
VERTEX
  8
0
 10
1432.000000
 20
395.500000
 42
0.000000
  0
VERTEX
  8
0
 10
1518.000000
 20
395.500000
 42
0.000000
  0
SEQEND
  0
POLYLINE
  8
0
 66
1
 70
1
  0
VERTEX
  8
0
 10
194.489556
 20
381.016899
 42
-0.111659
  0
VERTEX
  8
0
 10
194.606974
 20
380.675409
 42
-0.330761
  0
VERTEX
  8
0
 10
194.488994
 20
380.474088
 42
-0.157179
  0
VERTEX
  8
0
 10
194.134290
 20
380.442065
 42
-0.036175
  0
VERTEX
  8
0
 10
193.551938
 20
380.618443
 42
0.515452
  0
VERTEX
  8
0
 10
192.568497
 20
379.966424
 42
0.003488
  0
VERTEX
  8
0
 10
192.252985
 20
368.061552
 42
0.004433
  0
VERTEX
  8
0
 10
192.042135
 20
348.271581
 42
0.000447
  0
VERTEX
  8
0
 10
192.000000
 20
301.126041
 42
0.000000
  0
VERTEX
  8
0
 10
192.000000
 20
221.038104
 42
0.000000
  0
VERTEX
  8
0
 10
194.250000
 20
220.494048
 42
0.058472
  0
VERTEX
  8
0
 10
196.062374
 20
220.274708
 42
0.000153
  0
VERTEX
  8
0
 10
221.395313
 20
220.190590
 42
0.000951
  0
VERTEX
  8
0
 10
249.985587
 20
220.158789
 42
0.000593
  0
VERTEX
  8
0
 10
283.500000
 20
220.224996
 42
0.000000
  0
VERTEX
  8
0
 10
370.500000
 20
220.500000
 42
0.000000
  0
VERTEX
  8
0
 10
370.500000
 20
301.000000
 42
0.000000
  0
VERTEX
  8
0
 10
370.500000
 20
381.500000
 42
0.000000
  0
VERTEX
  8
0
 10
282.187618
 20
381.755444
 42
0.000738
  0
VERTEX
  8
0
 10
243.385143
 20
381.810423
 42
0.002091
  0
VERTEX
  8
0
 10
216.312905
 20
381.695636
 42
0.000292
  0
VERTEX
  8
0
 10
194.756696
 20
381.501492
 42
0.584165
  0
SEQEND
  0
POLYLINE
  8
0
 66
1
 70
1
  0
VERTEX
  8
0
 10
368.000000
 20
301.000000
 42
0.000000
  0
VERTEX
  8
0
 10
368.000000
 20
223.000000
 42
0.000000
  0
VERTEX
  8
0
 10
281.500000
 20
223.000000
 42
0.000000
  0
VERTEX
  8
0
 10
195.000000
 20
223.000000
 42
0.000000
  0
VERTEX
  8
0
 10
195.000000
 20
301.000000
 42
0.000000
  0
VERTEX
  8
0
 10
195.000000
 20
379.000000
 42
0.000000
  0
VERTEX
  8
0
 10
281.500000
 20
379.000000
 42
0.000000
  0
VERTEX
  8
0
 10
368.000000
 20
379.000000
 42
0.000000
  0
SEQEND
  0
POLYLINE
  8
0
 66
1
 70
1
  0
VERTEX
  8
0
 10
183.606989
 20
196.418213
 42
0.087372
  0
VERTEX
  8
0
 10
183.093037
 20
193.775845
 42
0.004451
  0
VERTEX
  8
0
 10
183.014914
 20
185.000000
 42
0.004451
  0
VERTEX
  8
0
 10
183.093037
 20
176.224155
 42
0.087372
  0
VERTEX
  8
0
 10
183.606989
 20
173.581787
 42
0.301362
  0
VERTEX
  8
0
 10
185.016308
 20
172.577836
 42
0.003473
  0
VERTEX
  8
0
 10
197.071451
 20
172.256858
 42
0.004461
  0
VERTEX
  8
0
 10
216.961500
 20
172.043012
 42
0.000457
  0
VERTEX
  8
0
 10
264.000000
 20
172.000000
 42
0.000457
  0
VERTEX
  8
0
 10
311.038500
 20
172.043012
 42
0.004461
  0
VERTEX
  8
0
 10
330.928549
 20
172.256858
 42
0.003473
  0
VERTEX
  8
0
 10
342.983692
 20
172.577836
 42
0.301362
  0
VERTEX
  8
0
 10
344.393011
 20
173.581787
 42
0.087372
  0
VERTEX
  8
0
 10
344.906963
 20
176.224155
 42
0.004451
  0
VERTEX
  8
0
 10
344.985086
 20
185.000000
 42
0.004451
  0
VERTEX
  8
0
 10
344.906963
 20
193.775845
 42
0.087372
  0
VERTEX
  8
0
 10
344.393011
 20
196.418213
 42
0.301362
  0
VERTEX
  8
0
 10
342.983692
 20
197.422164
 42
0.003473
  0
VERTEX
  8
0
 10
330.928549
 20
197.743142
 42
0.004461
  0
VERTEX
  8
0
 10
311.038500
 20
197.956988
 42
0.000457
  0
VERTEX
  8
0
 10
264.000000
 20
198.000000
 42
0.000457
  0
VERTEX
  8
0
 10
216.961500
 20
197.956988
 42
0.004461
  0
VERTEX
  8
0
 10
197.071451
 20
197.743142
 42
0.003473
  0
VERTEX
  8
0
 10
185.016308
 20
197.422164
 42
0.301362
  0
SEQEND
  0
POLYLINE
  8
0
 66
1
 70
1
  0
VERTEX
  8
0
 10
342.000000
 20
185.000000
 42
0.000000
  0
VERTEX
  8
0
 10
342.000000
 20
174.500000
 42
0.000000
  0
VERTEX
  8
0
 10
264.000000
 20
174.500000
 42
0.000000
  0
VERTEX
  8
0
 10
186.000000
 20
174.500000
 42
0.000000
  0
VERTEX
  8
0
 10
186.000000
 20
185.000000
 42
0.000000
  0
VERTEX
  8
0
 10
186.000000
 20
195.500000
 42
0.000000
  0
VERTEX
  8
0
 10
264.000000
 20
195.500000
 42
0.000000
  0
VERTEX
  8
0
 10
342.000000
 20
195.500000
 42
0.000000
  0
SEQEND
  0
POLYLINE
  8
0
 66
1
 70
1
  0
VERTEX
  8
0
 10
1351.606989
 20
196.418213
 42
0.072863
  0
VERTEX
  8
0
 10
1351.367630
 20
195.352522
 42
0.005590
  0
VERTEX
  8
0
 10
1351.178303
 20
192.411625
 42
0.007575
  0
VERTEX
  8
0
 10
1351.044285
 20
188.882814
 42
0.005703
  0
VERTEX
  8
0
 10
1351.000000
 20
185.000000
 42
0.005703
  0
VERTEX
  8
0
 10
1351.044285
 20
181.117186
 42
0.007575
  0
VERTEX
  8
0
 10
1351.178303
 20
177.588375
 42
0.005590
  0
VERTEX
  8
0
 10
1351.367630
 20
174.647478
 42
0.072863
  0
VERTEX
  8
0
 10
1351.606989
 20
173.581787
 42
0.301362
  0
VERTEX
  8
0
 10
1353.016308
 20
172.577836
 42
0.003473
  0
VERTEX
  8
0
 10
1365.071451
 20
172.256858
 42
0.004461
  0
VERTEX
  8
0
 10
1384.961500
 20
172.043012
 42
0.000457
  0
VERTEX
  8
0
 10
1432.000000
 20
172.000000
 42
0.000457
  0
VERTEX
  8
0
 10
1479.038500
 20
172.043012
 42
0.004461
  0
VERTEX
  8
0
 10
1498.928549
 20
172.256858
 42
0.003473
  0
VERTEX
  8
0
 10
1510.983692
 20
172.577836
 42
0.301362
  0
VERTEX
  8
0
 10
1512.393011
 20
173.581787
 42
0.087372
  0
VERTEX
  8
0
 10
1512.906963
 20
176.224155
 42
0.004451
  0
VERTEX
  8
0
 10
1512.985086
 20
185.000000
 42
0.004451
  0
VERTEX
  8
0
 10
1512.906963
 20
193.775845
 42
0.087372
  0
VERTEX
  8
0
 10
1512.393011
 20
196.418213
 42
0.301362
  0
VERTEX
  8
0
 10
1510.983692
 20
197.422164
 42
0.003473
  0
VERTEX
  8
0
 10
1498.928549
 20
197.743142
 42
0.004461
  0
VERTEX
  8
0
 10
1479.038500
 20
197.956988
 42
0.000457
  0
VERTEX
  8
0
 10
1432.000000
 20
198.000000
 42
0.000457
  0
VERTEX
  8
0
 10
1384.961500
 20
197.956988
 42
0.004461
  0
VERTEX
  8
0
 10
1365.071451
 20
197.743142
 42
0.003473
  0
VERTEX
  8
0
 10
1353.016308
 20
197.422164
 42
0.301362
  0
SEQEND
  0
POLYLINE
  8
0
 66
1
 70
1
  0
VERTEX
  8
0
 10
1510.000000
 20
185.000000
 42
0.000000
  0
VERTEX
  8
0
 10
1510.000000
 20
174.500000
 42
0.000000
  0
VERTEX
  8
0
 10
1432.000000
 20
174.500000
 42
0.000000
  0
VERTEX
  8
0
 10
1354.000000
 20
174.500000
 42
0.000000
  0
VERTEX
  8
0
 10
1354.000000
 20
185.000000
 42
0.000000
  0
VERTEX
  8
0
 10
1354.000000
 20
195.500000
 42
0.000000
  0
VERTEX
  8
0
 10
1432.000000
 20
195.500000
 42
0.000000
  0
VERTEX
  8
0
 10
1510.000000
 20
195.500000
 42
0.000000
  0
SEQEND
  0
ENDSEC
  0
EOF
